<svg width="286" height="239" viewBox="0 0 286 239" fill="none" xmlns="http://www.w3.org/2000/svg">
<g filter="url(#filter0_d_610_2218)">
<path d="M97.0824 224.205L97.9497 230.037L98.0131 230.463H98.4442H135.971H136.566L136.464 229.877L97.5721 7.17266L97.4998 6.75868H97.0796H93.2371L92.2164 0.913985L92.1441 0.5H91.7239L40.8916 0.5H40.4713L40.399 0.913985L1.50745 223.619L1.40512 224.205H2H7.85396L6.86333 229.877L6.76099 230.463H7.35588H42.1536H42.5848L42.6482 230.037L49.0667 186.877H87.106L92.5938 223.778L92.6572 224.205H93.0884H97.0824ZM81.2488 149.394H54.9232L67.9529 61.8567L81.2488 149.394ZM197.521 135.018C204.047 135.018 208.894 136.011 212.411 138.271C214.344 142.373 215.204 148.024 215.204 155.621V196.344C215.204 208.129 216.227 217.43 218.648 223.88L218.769 224.205H219.116H222.321C222.782 226.392 223.341 228.372 224.004 230.139L224.125 230.463H224.472H262.681H263.456L263.137 229.758C260.452 223.81 259.087 214.987 259.087 202.921V163.788C259.087 150.541 257.035 139.873 252.847 131.9C250.926 128.243 248.557 125.158 245.739 122.654C243.642 119.445 241.13 116.77 238.199 114.637C244.361 111.482 249.147 106.868 252.542 100.8C256.69 93.3849 258.746 83.8278 258.746 72.1612V58.4807C258.746 41.0665 254.463 28.101 245.24 19.4997C245.227 19.4877 245.214 19.4756 245.201 19.4636C243.657 17.183 241.887 15.1091 239.884 13.241C230.668 4.64674 216.616 0.5 197.282 0.5L141.674 0.5H141.174V1V223.705V224.205H141.674H146.53V229.963V230.463H147.03H184.557H185.057V229.963V135.018H197.521ZM201.614 39.5736C205.978 39.5736 209.556 40.4995 212.366 42.3264C214.015 45.7669 214.863 50.221 214.863 55.7217V72.9018C214.863 81.2706 212.999 86.9999 209.379 90.6442C205.761 94.2874 200.289 95.9449 192.847 95.9449H185.057V39.5736H201.614Z" stroke="white"/>
</g>
<defs>
<filter id="filter0_d_610_2218" x="0.810059" y="0" width="284.42" height="238.963" filterUnits="userSpaceOnUse" color-interpolation-filters="sRGB">
<feFlood flood-opacity="0" result="BackgroundImageFix"/>
<feColorMatrix in="SourceAlpha" type="matrix" values="0 0 0 0 0 0 0 0 0 0 0 0 0 0 0 0 0 0 127 0" result="hardAlpha"/>
<feOffset dx="17" dy="4"/>
<feGaussianBlur stdDeviation="2"/>
<feColorMatrix type="matrix" values="0 0 0 0 0 0 0 0 0 0 0 0 0 0 0 0 0 0 0.45 0"/>
<feBlend mode="normal" in2="BackgroundImageFix" result="effect1_dropShadow_610_2218"/>
<feBlend mode="normal" in="SourceGraphic" in2="effect1_dropShadow_610_2218" result="shape"/>
</filter>
</defs>
</svg>
