<svg width="84" height="65" viewBox="0 0 84 65" fill="none" xmlns="http://www.w3.org/2000/svg">
<path d="M35.826 10.4454C36.3481 10.2652 36.6253 9.69598 36.4452 9.17389L33.5098 0.666058C33.3296 0.143974 32.7604 -0.133231 32.2383 0.0469007C31.7162 0.227033 31.439 0.796291 31.6191 1.31837L34.2284 8.8809L26.6659 11.4902C26.1438 11.6703 25.8666 12.2396 26.0467 12.7616C26.2269 13.2837 26.7961 13.5609 27.3182 13.3808L35.826 10.4454ZM35.9377 8.60098C28.6884 5.07089 22.5082 3.08359 17.4199 2.36054C12.3416 1.63892 8.26971 2.16632 5.3193 3.7698C2.32821 5.39539 0.592368 8.07405 0.143815 11.3782C-0.299296 14.6422 0.515144 18.4663 2.47559 22.4996C10.3033 38.6041 36.938 59.2208 82.886 64.4936L83.114 62.5067C37.562 57.2793 11.6967 36.8959 4.27436 21.6253C2.4223 17.8149 1.75235 14.3969 2.12564 11.6472C2.49348 8.93763 3.87481 6.83113 6.27433 5.52705C8.71453 4.20085 12.3067 3.65405 17.1385 4.34065C21.9603 5.02582 27.9363 6.92918 35.0621 10.3991L35.9377 8.60098Z" fill="#E7EDFF"/>
</svg>
