<svg width="31" height="25" viewBox="0 0 31 25" fill="none" xmlns="http://www.w3.org/2000/svg">
<mask id="path-1-inside-1_738_2625" fill="white">
<path d="M0.5 12.5C0.5 10.0188 2.59854 7.99964 5.17727 7.99964L12.6048 7.99964C11.0083 6.285 11.0784 3.46178 12.7841 1.81764C13.6612 0.973957 14.8507 0.5 16.0909 0.5C17.3311 0.5 18.5206 0.973957 19.3977 1.81764L30.5 12.5L19.3977 23.1824C18.5206 24.026 17.3311 24.5 16.0909 24.5C14.8507 24.5 13.6612 24.026 12.7841 23.1824C11.0769 21.5412 11.0067 18.7135 12.6048 17.0004H5.17727C2.59854 17.0004 0.5 14.9812 0.5 12.5ZM20.1227 10.9999L5.17727 10.9999C4.77584 11.0172 4.3968 11.1828 4.11908 11.4622C3.84136 11.7416 3.68636 12.1134 3.68636 12.5C3.68636 12.8866 3.84136 13.2584 4.11908 13.5378C4.3968 13.8172 4.77584 13.9828 5.17727 14.0001L20.1227 14.0001L14.9886 18.94C14.7048 19.2256 14.5464 19.6055 14.5464 20.0006C14.5464 20.3957 14.7048 20.7756 14.9886 21.0612C15.281 21.3424 15.6775 21.5004 16.0909 21.5004C16.5043 21.5004 16.9008 21.3424 17.1932 21.0612L26.0909 12.5L17.1932 3.93881C16.9008 3.65759 16.5043 3.4996 16.0909 3.4996C15.6775 3.4996 15.281 3.65759 14.9886 3.93881C14.7048 4.22439 14.5464 4.60428 14.5464 4.9994C14.5464 5.39452 14.7048 5.77441 14.9886 6.05998L20.1227 10.9999Z"/>
</mask>
<path d="M12.6048 7.99964L12.6048 12.9996L24.0921 12.9996L16.2641 4.59241L12.6048 7.99964ZM12.7841 1.81764L9.31787 -1.7859L9.31404 -1.78221L12.7841 1.81764ZM19.3977 1.81764L22.8645 -1.78537L22.8639 -1.78589L19.3977 1.81764ZM30.5 12.5L33.9667 16.103L37.7114 12.5L33.9667 8.89698L30.5 12.5ZM19.3977 23.1824L22.8639 26.7859L22.8645 26.7854L19.3977 23.1824ZM12.7841 23.1824L16.2503 19.5788L16.2492 19.5778L12.7841 23.1824ZM12.6048 17.0004L16.261 20.411L24.1066 12.0004L12.6048 12.0004L12.6048 17.0004ZM20.1227 10.9999V15.9999L32.5306 15.9999L23.5894 7.39686L20.1227 10.9999ZM5.17727 10.9999V5.99988H5.06972L4.96227 6.0045L5.17727 10.9999ZM5.17727 14.0001L4.96227 18.9955L5.06972 19.0001H5.17727V14.0001ZM20.1227 14.0001L23.5894 17.6031L32.5306 9.00012L20.1227 9.00012V14.0001ZM14.9886 18.94L11.5219 15.337L11.4816 15.3758L11.4421 15.4155L14.9886 18.94ZM14.9886 21.0612L11.4421 24.5857L11.4818 24.6257L11.5224 24.6647L14.9886 21.0612ZM17.1932 21.0612L20.6594 24.6647L20.6599 24.6642L17.1932 21.0612ZM26.0909 12.5L29.5576 16.103L33.3023 12.5L29.5576 8.89698L26.0909 12.5ZM17.1932 3.93881L20.6599 0.335799L20.6594 0.335276L17.1932 3.93881ZM16.0909 3.4996V8.4996V3.4996ZM14.9886 3.93881L11.5224 0.335276L11.4818 0.374334L11.4421 0.414297L14.9886 3.93881ZM14.9886 6.05998L11.4421 9.5845L11.4816 9.6242L11.5219 9.663L14.9886 6.05998ZM5.5 12.5C5.5 12.7082 5.40479 12.8585 5.33835 12.9224C5.27501 12.9833 5.20979 12.9996 5.17727 12.9996L5.17727 2.99964C0.0205631 2.99964 -4.5 7.07743 -4.5 12.5L5.5 12.5ZM5.17727 12.9996H12.6048L12.6048 2.99964L5.17727 2.99964L5.17727 12.9996ZM16.2641 4.59241C16.435 4.77597 16.4562 4.94868 16.4542 5.02065C16.4521 5.09514 16.4203 5.25732 16.2541 5.41749L9.31404 -1.78221C5.64913 1.75053 5.48579 7.69124 8.94543 11.4069L16.2641 4.59241ZM16.2503 5.42118C16.2118 5.45814 16.1766 5.47753 16.1521 5.48728C16.1277 5.497 16.1072 5.5 16.0909 5.5V-4.5C13.5857 -4.5 11.1461 -3.54445 9.31787 -1.78589L16.2503 5.42118ZM16.0909 5.5C16.0745 5.5 16.0541 5.497 16.0297 5.48728C16.0052 5.47753 15.97 5.45814 15.9315 5.42118L22.8639 -1.78589C21.0357 -3.54445 18.5961 -4.5 16.0909 -4.5V5.5ZM15.931 5.42066L27.0333 16.103L33.9667 8.89698L22.8645 -1.78537L15.931 5.42066ZM27.0333 8.89698L15.931 19.5793L22.8645 26.7854L33.9667 16.103L27.0333 8.89698ZM15.9315 19.5788C15.97 19.5419 16.0052 19.5225 16.0297 19.5127C16.0541 19.503 16.0745 19.5 16.0909 19.5V29.5C18.5961 29.5 21.0357 28.5444 22.8639 26.7859L15.9315 19.5788ZM16.0909 19.5C16.1072 19.5 16.1277 19.503 16.1521 19.5127C16.1766 19.5225 16.2118 19.5419 16.2503 19.5788L9.31787 26.7859C11.1461 28.5444 13.5857 29.5 16.0909 29.5V19.5ZM16.2492 19.5778C16.4194 19.7414 16.451 19.9063 16.453 19.98C16.455 20.0511 16.4343 20.2252 16.261 20.411L8.94858 13.5898C5.484 17.3038 5.64511 23.2553 9.31897 26.787L16.2492 19.5778ZM12.6048 12.0004H5.17727L5.17727 22.0004H12.6048L12.6048 12.0004ZM5.17727 12.0004C5.20979 12.0004 5.27501 12.0167 5.33835 12.0776C5.40479 12.1415 5.5 12.2918 5.5 12.5L-4.5 12.5C-4.5 17.9226 0.0205631 22.0004 5.17727 22.0004L5.17727 12.0004ZM20.1227 5.99988L5.17727 5.99988L5.17727 15.9999L20.1227 15.9999V5.99988ZM4.96227 6.0045C3.33264 6.07464 1.75584 6.74708 0.572668 7.93756L7.66549 14.9868C7.03776 15.6184 6.21902 15.9597 5.39227 15.9953L4.96227 6.0045ZM0.572668 7.93756C-0.616289 9.13387 -1.31364 10.7648 -1.31364 12.5L8.68636 12.5C8.68636 13.4619 8.29901 14.3494 7.66549 14.9868L0.572668 7.93756ZM-1.31364 12.5C-1.31364 14.2352 -0.616289 15.8661 0.572668 17.0624L7.66549 10.0132C8.29901 10.6506 8.68636 11.5381 8.68636 12.5L-1.31364 12.5ZM0.572668 17.0624C1.75584 18.2529 3.33264 18.9254 4.96227 18.9955L5.39227 9.00474C6.21902 9.04033 7.03776 9.38158 7.66549 10.0132L0.572668 17.0624ZM5.17727 19.0001L20.1227 19.0001L20.1227 9.00012L5.17727 9.00012L5.17727 19.0001ZM16.656 10.3971L11.5219 15.337L18.4554 22.543L23.5894 17.6031L16.656 10.3971ZM11.4421 15.4155C10.2471 16.6179 9.54643 18.257 9.54643 20.0006L19.5464 20.0006C19.5464 20.954 19.1625 21.8332 18.5351 22.4645L11.4421 15.4155ZM9.54643 20.0006C9.54643 21.7442 10.2471 23.3833 11.4421 24.5857L18.5351 17.5367C19.1625 18.168 19.5464 19.0472 19.5464 20.0006L9.54643 20.0006ZM11.5224 24.6647C12.7659 25.8608 14.4125 26.5004 16.0909 26.5004L16.0909 16.5004C16.9424 16.5004 17.7961 16.824 18.4548 17.4576L11.5224 24.6647ZM16.0909 26.5004C17.7693 26.5004 19.4159 25.8608 20.6594 24.6647L13.727 17.4576C14.3857 16.824 15.2394 16.5004 16.0909 16.5004L16.0909 26.5004ZM20.6599 24.6642L29.5576 16.103L22.6242 8.89699L13.7264 17.4582L20.6599 24.6642ZM29.5576 8.89698L20.6599 0.335799L13.7264 7.54183L22.6242 16.103L29.5576 8.89698ZM20.6594 0.335276C19.4159 -0.860815 17.7693 -1.5004 16.0909 -1.5004V8.4996C15.2393 8.4996 14.3857 8.17599 13.727 7.54235L20.6594 0.335276ZM16.0909 -1.5004C14.4125 -1.5004 12.7659 -0.860815 11.5224 0.335276L18.4548 7.54235C17.7961 8.17599 16.9425 8.4996 16.0909 8.4996V-1.5004ZM11.4421 0.414297C10.2471 1.61674 9.54643 3.25578 9.54643 4.9994L19.5464 4.9994C19.5464 5.95278 19.1625 6.83204 18.5351 7.46333L11.4421 0.414297ZM9.54643 4.9994C9.54643 6.74301 10.2471 8.38206 11.4421 9.5845L18.5351 2.53547C19.1625 3.16676 19.5464 4.04602 19.5464 4.9994L9.54643 4.9994ZM11.5219 9.663L16.656 14.6029L23.5894 7.39686L18.4554 2.45697L11.5219 9.663Z" fill="url(#paint0_linear_738_2625)" mask="url(#path-1-inside-1_738_2625)"/>
<defs>
<linearGradient id="paint0_linear_738_2625" x1="30.5" y1="4.88597" x2="18.6845" y2="32.706" gradientUnits="userSpaceOnUse">
<stop stop-color="#007BFF"/>
<stop offset="1" stop-color="#1447FF"/>
</linearGradient>
</defs>
</svg>
