<svg width="30" height="26" viewBox="0 0 30 26" fill="none" xmlns="http://www.w3.org/2000/svg">
<path d="M30 6.02363V20.8125C30.0001 22.0082 29.5615 23.1586 28.7741 24.0285C27.9866 24.8985 26.9098 25.422 25.764 25.4922L25.5 25.5H4.5C3.35218 25.5001 2.24773 25.0432 1.41261 24.223C0.57749 23.4028 0.0748387 22.2811 0.00750017 21.0875L0 20.8125V6.02363L14.1675 15.8626L14.3415 15.9657C14.5466 16.0701 14.7718 16.1243 15 16.1243C15.2282 16.1243 15.4534 16.0701 15.6585 15.9657L15.8325 15.8626L30 6.02363Z" fill="url(#paint0_linear_527_2643)"/>
<path d="M25.4999 0.5C27.1199 0.5 28.5404 1.39062 29.3324 2.72967L14.9999 12.6827L0.667419 2.72967C1.04361 2.09346 1.56036 1.56015 2.17458 1.1742C2.7888 0.788245 3.4827 0.560839 4.19842 0.510937L4.49992 0.5H25.4999Z" fill="url(#paint1_linear_527_2643)"/>
<defs>
<linearGradient id="paint0_linear_527_2643" x1="5.48246" y1="0.499999" x2="34.6801" y2="19.101" gradientUnits="userSpaceOnUse">
<stop stop-color="#007BFF"/>
<stop offset="1" stop-color="#1447FF"/>
</linearGradient>
<linearGradient id="paint1_linear_527_2643" x1="5.48246" y1="0.499999" x2="34.6801" y2="19.101" gradientUnits="userSpaceOnUse">
<stop stop-color="#007BFF"/>
<stop offset="1" stop-color="#1447FF"/>
</linearGradient>
</defs>
</svg>
