<svg width="814" height="170" viewBox="0 0 814 170" fill="none" xmlns="http://www.w3.org/2000/svg">
<g filter="url(#filter0_d_610_2217)">
<mask id="path-1-outside-1_610_2217" maskUnits="userSpaceOnUse" x="0" y="0" width="793" height="162" fill="black">
<rect fill="white" width="793" height="162"/>
<path d="M70.5414 154.582H1V3.16312H70.5414V24.7943H26.4985V64.8121H61.5011V86.4433H26.4985V132.95H70.5414V154.582Z"/>
<path d="M97.496 154.582H73.3883L102.828 77.1418L74.7791 3.16312H101.668L119.054 52.6986L136.903 3.16312H161.011L132.962 77.1418L162.401 154.582H135.512L116.736 101.152L97.496 154.582Z"/>
<path d="M195.155 154.582H169.656V3.16312H207.208C232.475 3.16312 245.224 15.7092 245.224 40.5851V55.5106C245.224 80.3865 232.475 92.9326 207.208 92.9326H195.155V154.582ZM195.155 24.7943V71.3014H207.208C215.553 71.3014 219.726 67.4078 219.726 57.0248V39.0709C219.726 28.6879 215.553 24.7943 207.208 24.7943H195.155Z"/>
<path d="M323.752 154.582H254.211V3.16312H323.752V24.7943H279.709V64.8121H314.712V86.4433H279.709V132.95H323.752V154.582Z"/>
<path d="M358.378 154.582H332.879V3.16312H370.663C396.857 3.16312 408.448 14.4114 408.448 37.9894V47.2908C408.448 63.0816 402.884 73.0319 391.758 77.1418V77.5745C403.116 80.8191 408.679 91.6348 408.679 109.589V136.195C408.679 144.415 409.607 150.472 411.461 154.582H385.499C383.876 150.255 383.181 143.982 383.181 135.979V108.291C383.181 94.4468 379.008 89.6879 367.186 89.6879H358.378V154.582ZM358.378 24.7943V68.0567H367.65C377.849 68.0567 382.949 63.5142 382.949 52.0496V40.3688C382.949 29.9858 378.545 24.7943 369.968 24.7943H358.378Z"/>
<path d="M447.233 154.582H421.735V3.16312H447.233V154.582Z"/>
<path d="M531.235 154.582H461.694V3.16312H531.235V24.7943H487.192V64.8121H522.195V86.4433H487.192V132.95H531.235V154.582Z"/>
<path d="M563.08 154.582H540.363V3.16312H571.888L597.618 93.7979V3.16312H620.335V154.582H594.605L563.08 44.0461V154.582Z"/>
<path d="M632.797 119.539V38.2057C632.797 14.6277 646.01 1 670.349 1C694.689 1 707.901 14.6277 707.901 38.2057V54.2128H683.794V36.6915C683.794 27.3901 679.621 22.6312 671.044 22.6312C662.468 22.6312 658.295 27.3901 658.295 36.6915V121.27C658.295 130.571 662.468 135.113 671.044 135.113C679.621 135.113 683.794 130.571 683.794 121.27V99.2057H707.901V119.539C707.901 143.117 694.689 156.745 670.349 156.745C646.01 156.745 632.797 143.117 632.797 119.539Z"/>
<path d="M787.841 154.582H718.3V3.16312H787.841V24.7943H743.799V64.8121H778.801V86.4433H743.799V132.95H787.841V154.582Z"/>
<path d="M74.1806 158.837H4.63912V7.41844H74.1806V29.0496H30.1377V69.0674H65.1402V90.6986H30.1377V137.206H74.1806V158.837Z"/>
<path d="M101.135 158.837H77.0274L106.467 81.3972L78.4183 7.41844H105.308L122.693 56.9539L140.542 7.41844H164.65L136.601 81.3972L166.04 158.837H139.151L120.375 105.408L101.135 158.837Z"/>
<path d="M198.794 158.837H173.295V7.41844H210.848C236.114 7.41844 248.864 19.9645 248.864 44.8404V59.766C248.864 84.6418 236.114 97.1879 210.848 97.1879H198.794V158.837ZM198.794 29.0496V75.5567H210.848C219.193 75.5567 223.365 71.6631 223.365 61.2801V43.3262C223.365 32.9433 219.193 29.0496 210.848 29.0496H198.794Z"/>
<path d="M327.391 158.837H257.85V7.41844H327.391V29.0496H283.348V69.0674H318.351V90.6986H283.348V137.206H327.391V158.837Z"/>
<path d="M362.017 158.837H336.518V7.41844H374.303C400.497 7.41844 412.087 18.6667 412.087 42.2447V51.5461C412.087 67.3369 406.523 77.2872 395.397 81.3972V81.8298C406.755 85.0745 412.319 95.8901 412.319 113.844V140.45C412.319 148.67 413.246 154.727 415.1 158.837H389.138C387.516 154.511 386.82 148.238 386.82 140.234V112.546C386.82 98.7021 382.648 93.9433 370.826 93.9433H362.017V158.837ZM362.017 29.0496V72.3121H371.289C381.489 72.3121 386.588 67.7695 386.588 56.305V44.6241C386.588 34.2411 382.184 29.0496 373.607 29.0496H362.017Z"/>
<path d="M450.872 158.837H425.374V7.41844H450.872V158.837Z"/>
<path d="M534.874 158.837H465.333V7.41844H534.874V29.0496H490.832V69.0674H525.834V90.6986H490.832V137.206H534.874V158.837Z"/>
<path d="M566.719 158.837H544.002V7.41844H575.527L601.258 98.0532V7.41844H623.974V158.837H598.244L566.719 48.3014V158.837Z"/>
<path d="M636.436 123.794V42.461C636.436 18.883 649.649 5.25532 673.988 5.25532C698.328 5.25532 711.541 18.883 711.541 42.461V58.4681H687.433V40.9468C687.433 31.6454 683.26 26.8865 674.684 26.8865C666.107 26.8865 661.934 31.6454 661.934 40.9468V125.525C661.934 134.826 666.107 139.369 674.684 139.369C683.26 139.369 687.433 134.826 687.433 125.525V103.461H711.541V123.794C711.541 147.372 698.328 161 673.988 161C649.649 161 636.436 147.372 636.436 123.794Z"/>
<path d="M791.481 158.837H721.939V7.41844H791.481V29.0496H747.438V69.0674H782.44V90.6986H747.438V137.206H791.481V158.837Z"/>
</mask>
<path d="M70.5414 154.582H1V3.16312H70.5414V24.7943H26.4985V64.8121H61.5011V86.4433H26.4985V132.95H70.5414V154.582Z" fill="white"/>
<path d="M97.496 154.582H73.3883L102.828 77.1418L74.7791 3.16312H101.668L119.054 52.6986L136.903 3.16312H161.011L132.962 77.1418L162.401 154.582H135.512L116.736 101.152L97.496 154.582Z" fill="white"/>
<path d="M195.155 154.582H169.656V3.16312H207.208C232.475 3.16312 245.224 15.7092 245.224 40.5851V55.5106C245.224 80.3865 232.475 92.9326 207.208 92.9326H195.155V154.582ZM195.155 24.7943V71.3014H207.208C215.553 71.3014 219.726 67.4078 219.726 57.0248V39.0709C219.726 28.6879 215.553 24.7943 207.208 24.7943H195.155Z" fill="white"/>
<path d="M323.752 154.582H254.211V3.16312H323.752V24.7943H279.709V64.8121H314.712V86.4433H279.709V132.95H323.752V154.582Z" fill="white"/>
<path d="M358.378 154.582H332.879V3.16312H370.663C396.857 3.16312 408.448 14.4114 408.448 37.9894V47.2908C408.448 63.0816 402.884 73.0319 391.758 77.1418V77.5745C403.116 80.8191 408.679 91.6348 408.679 109.589V136.195C408.679 144.415 409.607 150.472 411.461 154.582H385.499C383.876 150.255 383.181 143.982 383.181 135.979V108.291C383.181 94.4468 379.008 89.6879 367.186 89.6879H358.378V154.582ZM358.378 24.7943V68.0567H367.65C377.849 68.0567 382.949 63.5142 382.949 52.0496V40.3688C382.949 29.9858 378.545 24.7943 369.968 24.7943H358.378Z" fill="white"/>
<path d="M447.233 154.582H421.735V3.16312H447.233V154.582Z" fill="white"/>
<path d="M531.235 154.582H461.694V3.16312H531.235V24.7943H487.192V64.8121H522.195V86.4433H487.192V132.95H531.235V154.582Z" fill="white"/>
<path d="M563.08 154.582H540.363V3.16312H571.888L597.618 93.7979V3.16312H620.335V154.582H594.605L563.08 44.0461V154.582Z" fill="white"/>
<path d="M632.797 119.539V38.2057C632.797 14.6277 646.01 1 670.349 1C694.689 1 707.901 14.6277 707.901 38.2057V54.2128H683.794V36.6915C683.794 27.3901 679.621 22.6312 671.044 22.6312C662.468 22.6312 658.295 27.3901 658.295 36.6915V121.27C658.295 130.571 662.468 135.113 671.044 135.113C679.621 135.113 683.794 130.571 683.794 121.27V99.2057H707.901V119.539C707.901 143.117 694.689 156.745 670.349 156.745C646.01 156.745 632.797 143.117 632.797 119.539Z" fill="white"/>
<path d="M787.841 154.582H718.3V3.16312H787.841V24.7943H743.799V64.8121H778.801V86.4433H743.799V132.95H787.841V154.582Z" fill="white"/>
<path d="M70.5414 154.582H1V3.16312H70.5414V24.7943H26.4985V64.8121H61.5011V86.4433H26.4985V132.95H70.5414V154.582Z" stroke="white" stroke-width="2" mask="url(#path-1-outside-1_610_2217)"/>
<path d="M97.496 154.582H73.3883L102.828 77.1418L74.7791 3.16312H101.668L119.054 52.6986L136.903 3.16312H161.011L132.962 77.1418L162.401 154.582H135.512L116.736 101.152L97.496 154.582Z" stroke="white" stroke-width="2" mask="url(#path-1-outside-1_610_2217)"/>
<path d="M195.155 154.582H169.656V3.16312H207.208C232.475 3.16312 245.224 15.7092 245.224 40.5851V55.5106C245.224 80.3865 232.475 92.9326 207.208 92.9326H195.155V154.582ZM195.155 24.7943V71.3014H207.208C215.553 71.3014 219.726 67.4078 219.726 57.0248V39.0709C219.726 28.6879 215.553 24.7943 207.208 24.7943H195.155Z" stroke="white" stroke-width="2" mask="url(#path-1-outside-1_610_2217)"/>
<path d="M323.752 154.582H254.211V3.16312H323.752V24.7943H279.709V64.8121H314.712V86.4433H279.709V132.95H323.752V154.582Z" stroke="white" stroke-width="2" mask="url(#path-1-outside-1_610_2217)"/>
<path d="M358.378 154.582H332.879V3.16312H370.663C396.857 3.16312 408.448 14.4114 408.448 37.9894V47.2908C408.448 63.0816 402.884 73.0319 391.758 77.1418V77.5745C403.116 80.8191 408.679 91.6348 408.679 109.589V136.195C408.679 144.415 409.607 150.472 411.461 154.582H385.499C383.876 150.255 383.181 143.982 383.181 135.979V108.291C383.181 94.4468 379.008 89.6879 367.186 89.6879H358.378V154.582ZM358.378 24.7943V68.0567H367.65C377.849 68.0567 382.949 63.5142 382.949 52.0496V40.3688C382.949 29.9858 378.545 24.7943 369.968 24.7943H358.378Z" stroke="white" stroke-width="2" mask="url(#path-1-outside-1_610_2217)"/>
<path d="M447.233 154.582H421.735V3.16312H447.233V154.582Z" stroke="white" stroke-width="2" mask="url(#path-1-outside-1_610_2217)"/>
<path d="M531.235 154.582H461.694V3.16312H531.235V24.7943H487.192V64.8121H522.195V86.4433H487.192V132.95H531.235V154.582Z" stroke="white" stroke-width="2" mask="url(#path-1-outside-1_610_2217)"/>
<path d="M563.08 154.582H540.363V3.16312H571.888L597.618 93.7979V3.16312H620.335V154.582H594.605L563.08 44.0461V154.582Z" stroke="white" stroke-width="2" mask="url(#path-1-outside-1_610_2217)"/>
<path d="M632.797 119.539V38.2057C632.797 14.6277 646.01 1 670.349 1C694.689 1 707.901 14.6277 707.901 38.2057V54.2128H683.794V36.6915C683.794 27.3901 679.621 22.6312 671.044 22.6312C662.468 22.6312 658.295 27.3901 658.295 36.6915V121.27C658.295 130.571 662.468 135.113 671.044 135.113C679.621 135.113 683.794 130.571 683.794 121.27V99.2057H707.901V119.539C707.901 143.117 694.689 156.745 670.349 156.745C646.01 156.745 632.797 143.117 632.797 119.539Z" stroke="white" stroke-width="2" mask="url(#path-1-outside-1_610_2217)"/>
<path d="M787.841 154.582H718.3V3.16312H787.841V24.7943H743.799V64.8121H778.801V86.4433H743.799V132.95H787.841V154.582Z" stroke="white" stroke-width="2" mask="url(#path-1-outside-1_610_2217)"/>
<path d="M74.1806 158.837H4.63912V7.41844H74.1806V29.0496H30.1377V69.0674H65.1402V90.6986H30.1377V137.206H74.1806V158.837Z" stroke="white" stroke-width="2" mask="url(#path-1-outside-1_610_2217)"/>
<path d="M101.135 158.837H77.0274L106.467 81.3972L78.4183 7.41844H105.308L122.693 56.9539L140.542 7.41844H164.65L136.601 81.3972L166.04 158.837H139.151L120.375 105.408L101.135 158.837Z" stroke="white" stroke-width="2" mask="url(#path-1-outside-1_610_2217)"/>
<path d="M198.794 158.837H173.295V7.41844H210.848C236.114 7.41844 248.864 19.9645 248.864 44.8404V59.766C248.864 84.6418 236.114 97.1879 210.848 97.1879H198.794V158.837ZM198.794 29.0496V75.5567H210.848C219.193 75.5567 223.365 71.6631 223.365 61.2801V43.3262C223.365 32.9433 219.193 29.0496 210.848 29.0496H198.794Z" stroke="white" stroke-width="2" mask="url(#path-1-outside-1_610_2217)"/>
<path d="M327.391 158.837H257.85V7.41844H327.391V29.0496H283.348V69.0674H318.351V90.6986H283.348V137.206H327.391V158.837Z" stroke="white" stroke-width="2" mask="url(#path-1-outside-1_610_2217)"/>
<path d="M362.017 158.837H336.518V7.41844H374.303C400.497 7.41844 412.087 18.6667 412.087 42.2447V51.5461C412.087 67.3369 406.523 77.2872 395.397 81.3972V81.8298C406.755 85.0745 412.319 95.8901 412.319 113.844V140.45C412.319 148.67 413.246 154.727 415.1 158.837H389.138C387.516 154.511 386.82 148.238 386.82 140.234V112.546C386.82 98.7021 382.648 93.9433 370.826 93.9433H362.017V158.837ZM362.017 29.0496V72.3121H371.289C381.489 72.3121 386.588 67.7695 386.588 56.305V44.6241C386.588 34.2411 382.184 29.0496 373.607 29.0496H362.017Z" stroke="white" stroke-width="2" mask="url(#path-1-outside-1_610_2217)"/>
<path d="M450.872 158.837H425.374V7.41844H450.872V158.837Z" stroke="white" stroke-width="2" mask="url(#path-1-outside-1_610_2217)"/>
<path d="M534.874 158.837H465.333V7.41844H534.874V29.0496H490.832V69.0674H525.834V90.6986H490.832V137.206H534.874V158.837Z" stroke="white" stroke-width="2" mask="url(#path-1-outside-1_610_2217)"/>
<path d="M566.719 158.837H544.002V7.41844H575.527L601.258 98.0532V7.41844H623.974V158.837H598.244L566.719 48.3014V158.837Z" stroke="white" stroke-width="2" mask="url(#path-1-outside-1_610_2217)"/>
<path d="M636.436 123.794V42.461C636.436 18.883 649.649 5.25532 673.988 5.25532C698.328 5.25532 711.541 18.883 711.541 42.461V58.4681H687.433V40.9468C687.433 31.6454 683.26 26.8865 674.684 26.8865C666.107 26.8865 661.934 31.6454 661.934 40.9468V125.525C661.934 134.826 666.107 139.369 674.684 139.369C683.26 139.369 687.433 134.826 687.433 125.525V103.461H711.541V123.794C711.541 147.372 698.328 161 673.988 161C649.649 161 636.436 147.372 636.436 123.794Z" stroke="white" stroke-width="2" mask="url(#path-1-outside-1_610_2217)"/>
<path d="M791.481 158.837H721.939V7.41844H791.481V29.0496H747.438V69.0674H782.44V90.6986H747.438V137.206H791.481V158.837Z" stroke="white" stroke-width="2" mask="url(#path-1-outside-1_610_2217)"/>
</g>
<defs>
<filter id="filter0_d_610_2217" x="0" y="0" width="813.48" height="170" filterUnits="userSpaceOnUse" color-interpolation-filters="sRGB">
<feFlood flood-opacity="0" result="BackgroundImageFix"/>
<feColorMatrix in="SourceAlpha" type="matrix" values="0 0 0 0 0 0 0 0 0 0 0 0 0 0 0 0 0 0 127 0" result="hardAlpha"/>
<feOffset dx="17" dy="4"/>
<feGaussianBlur stdDeviation="2"/>
<feColorMatrix type="matrix" values="0 0 0 0 0 0 0 0 0 0 0 0 0 0 0 0 0 0 0.15 0"/>
<feBlend mode="normal" in2="BackgroundImageFix" result="effect1_dropShadow_610_2217"/>
<feBlend mode="normal" in="SourceGraphic" in2="effect1_dropShadow_610_2217" result="shape"/>
</filter>
</defs>
</svg>
