<svg width="1440" height="592" viewBox="0 0 1440 592" fill="none" xmlns="http://www.w3.org/2000/svg">
<g style="mix-blend-mode:overlay" opacity="0.2">
<path d="M-97.92 -164.5H-96.7661V702.794H-97.92V-164.5Z" fill="url(#paint0_linear_527_2621)"/>
<path d="M-29.8401 -164.5H-28.6862V702.794H-29.8401V-164.5Z" fill="url(#paint1_linear_527_2621)"/>
<path d="M38.2399 -164.5H39.3938V702.794H38.2399V-164.5Z" fill="url(#paint2_linear_527_2621)"/>
<path d="M106.32 -164.5H107.474V702.794H106.32V-164.5Z" fill="url(#paint3_linear_527_2621)"/>
<path d="M174.4 -164.5H175.554V702.794H174.4V-164.5Z" fill="url(#paint4_linear_527_2621)"/>
<path d="M242.48 -164.5H243.634V702.794H242.48V-164.5Z" fill="url(#paint5_linear_527_2621)"/>
<path d="M310.56 -164.5H311.714V702.794H310.56V-164.5Z" fill="url(#paint6_linear_527_2621)"/>
<path d="M378.64 -164.5H379.794V770.5H378.64V-164.5Z" fill="url(#paint7_linear_527_2621)"/>
<path d="M446.72 -164.5H447.874V770.5H446.72V-164.5Z" fill="url(#paint8_linear_527_2621)"/>
<path d="M514.8 -164.5H515.954V770.5H514.8V-164.5Z" fill="url(#paint9_linear_527_2621)"/>
<path d="M582.88 -164.5H584.034V770.5H582.88V-164.5Z" fill="url(#paint10_linear_527_2621)"/>
<path d="M650.96 -164.5H652.114V770.5H650.96V-164.5Z" fill="url(#paint11_linear_527_2621)"/>
<path d="M719.04 -164.5H720.194V770.5H719.04V-164.5Z" fill="url(#paint12_linear_527_2621)"/>
<path d="M787.12 -164.5H788.274V770.5H787.12V-164.5Z" fill="url(#paint13_linear_527_2621)"/>
<path d="M855.2 -164.5H856.354V770.5H855.2V-164.5Z" fill="url(#paint14_linear_527_2621)"/>
<path d="M923.28 -164.5H924.433V770.5H923.28V-164.5Z" fill="url(#paint15_linear_527_2621)"/>
<path d="M991.36 -164.5H992.513V770.5H991.36V-164.5Z" fill="url(#paint16_linear_527_2621)"/>
<path d="M1059.44 -164.5H1060.59V702.794H1059.44V-164.5Z" fill="url(#paint17_linear_527_2621)"/>
<path d="M1127.52 -164.5H1128.67V702.794H1127.52V-164.5Z" fill="url(#paint18_linear_527_2621)"/>
<path d="M1195.6 -164.5H1196.75V702.794H1195.6V-164.5Z" fill="url(#paint19_linear_527_2621)"/>
<path d="M1263.68 -164.5H1264.83V702.794H1263.68V-164.5Z" fill="url(#paint20_linear_527_2621)"/>
<path d="M1331.76 -164.5H1332.91V702.794H1331.76V-164.5Z" fill="url(#paint21_linear_527_2621)"/>
<path d="M1399.84 -164.5H1400.99V702.794H1399.84V-164.5Z" fill="url(#paint22_linear_527_2621)"/>
<path d="M1467.92 -164.5H1469.07V702.794H1467.92V-164.5Z" fill="url(#paint23_linear_527_2621)"/>
<path d="M1536 -164.5H1537.15V702.794H1536V-164.5Z" fill="url(#paint24_linear_527_2621)"/>
<path d="M-110.613 740.503V739.348H1551V740.503H-110.613Z" fill="url(#paint25_linear_527_2621)"/>
<path d="M-110.613 672.364V671.21H1551V672.364H-110.613Z" fill="url(#paint26_linear_527_2621)"/>
<path d="M-110.613 604.226V603.071H1551V604.226H-110.613Z" fill="url(#paint27_linear_527_2621)"/>
<path d="M-110.613 536.088V534.933H1551V536.088H-110.613Z" fill="url(#paint28_linear_527_2621)"/>
<path d="M-110.613 467.95V466.795H1551V467.95H-110.613Z" fill="url(#paint29_linear_527_2621)"/>
<path d="M-110.613 399.812V398.657H1551V399.812H-110.613Z" fill="url(#paint30_linear_527_2621)"/>
<path d="M-110.613 331.674V330.519H1551V331.674H-110.613Z" fill="url(#paint31_linear_527_2621)"/>
<path d="M-110.613 263.536V262.381H1551V263.536H-110.613Z" fill="url(#paint32_linear_527_2621)"/>
<path d="M-110.613 195.398V194.243H1551V195.398H-110.613Z" fill="url(#paint33_linear_527_2621)"/>
<path d="M-110.613 127.26V126.105H1551V127.26H-110.613Z" fill="url(#paint34_linear_527_2621)"/>
<path d="M-110.613 59.1217V57.9669H1551V59.1217H-110.613Z" fill="url(#paint35_linear_527_2621)"/>
<path d="M-110.613 -9.01636V-10.1712H1551V-9.01636H-110.613Z" fill="url(#paint36_linear_527_2621)"/>
<path d="M-111.19 -73.6498V-74.8047H1550.42V-73.6498H-111.19Z" fill="url(#paint37_linear_527_2621)"/>
</g>
<defs>
<linearGradient id="paint0_linear_527_2621" x1="692.5" y1="-164.5" x2="692.5" y2="770.5" gradientUnits="userSpaceOnUse">
<stop stop-color="white"/>
<stop offset="1" stop-color="white" stop-opacity="0"/>
</linearGradient>
<linearGradient id="paint1_linear_527_2621" x1="692.5" y1="-164.5" x2="692.5" y2="770.5" gradientUnits="userSpaceOnUse">
<stop stop-color="white"/>
<stop offset="1" stop-color="white" stop-opacity="0"/>
</linearGradient>
<linearGradient id="paint2_linear_527_2621" x1="692.5" y1="-164.5" x2="692.5" y2="770.5" gradientUnits="userSpaceOnUse">
<stop stop-color="white"/>
<stop offset="1" stop-color="white" stop-opacity="0"/>
</linearGradient>
<linearGradient id="paint3_linear_527_2621" x1="692.5" y1="-164.5" x2="692.5" y2="770.5" gradientUnits="userSpaceOnUse">
<stop stop-color="white"/>
<stop offset="1" stop-color="white" stop-opacity="0"/>
</linearGradient>
<linearGradient id="paint4_linear_527_2621" x1="692.5" y1="-164.5" x2="692.5" y2="770.5" gradientUnits="userSpaceOnUse">
<stop stop-color="white"/>
<stop offset="1" stop-color="white" stop-opacity="0"/>
</linearGradient>
<linearGradient id="paint5_linear_527_2621" x1="692.5" y1="-164.5" x2="692.5" y2="770.5" gradientUnits="userSpaceOnUse">
<stop stop-color="white"/>
<stop offset="1" stop-color="white" stop-opacity="0"/>
</linearGradient>
<linearGradient id="paint6_linear_527_2621" x1="692.5" y1="-164.5" x2="692.5" y2="770.5" gradientUnits="userSpaceOnUse">
<stop stop-color="white"/>
<stop offset="1" stop-color="white" stop-opacity="0"/>
</linearGradient>
<linearGradient id="paint7_linear_527_2621" x1="692.5" y1="-164.5" x2="692.5" y2="770.5" gradientUnits="userSpaceOnUse">
<stop stop-color="white"/>
<stop offset="1" stop-color="white" stop-opacity="0"/>
</linearGradient>
<linearGradient id="paint8_linear_527_2621" x1="692.5" y1="-164.5" x2="692.5" y2="770.5" gradientUnits="userSpaceOnUse">
<stop stop-color="white"/>
<stop offset="1" stop-color="white" stop-opacity="0"/>
</linearGradient>
<linearGradient id="paint9_linear_527_2621" x1="692.5" y1="-164.5" x2="692.5" y2="770.5" gradientUnits="userSpaceOnUse">
<stop stop-color="white"/>
<stop offset="1" stop-color="white" stop-opacity="0"/>
</linearGradient>
<linearGradient id="paint10_linear_527_2621" x1="692.5" y1="-164.5" x2="692.5" y2="770.5" gradientUnits="userSpaceOnUse">
<stop stop-color="white"/>
<stop offset="1" stop-color="white" stop-opacity="0"/>
</linearGradient>
<linearGradient id="paint11_linear_527_2621" x1="692.5" y1="-164.5" x2="692.5" y2="770.5" gradientUnits="userSpaceOnUse">
<stop stop-color="white"/>
<stop offset="1" stop-color="white" stop-opacity="0"/>
</linearGradient>
<linearGradient id="paint12_linear_527_2621" x1="692.5" y1="-164.5" x2="692.5" y2="770.5" gradientUnits="userSpaceOnUse">
<stop stop-color="white"/>
<stop offset="1" stop-color="white" stop-opacity="0"/>
</linearGradient>
<linearGradient id="paint13_linear_527_2621" x1="692.5" y1="-164.5" x2="692.5" y2="770.5" gradientUnits="userSpaceOnUse">
<stop stop-color="white"/>
<stop offset="1" stop-color="white" stop-opacity="0"/>
</linearGradient>
<linearGradient id="paint14_linear_527_2621" x1="692.5" y1="-164.5" x2="692.5" y2="770.5" gradientUnits="userSpaceOnUse">
<stop stop-color="white"/>
<stop offset="1" stop-color="white" stop-opacity="0"/>
</linearGradient>
<linearGradient id="paint15_linear_527_2621" x1="692.5" y1="-164.5" x2="692.5" y2="770.5" gradientUnits="userSpaceOnUse">
<stop stop-color="white"/>
<stop offset="1" stop-color="white" stop-opacity="0"/>
</linearGradient>
<linearGradient id="paint16_linear_527_2621" x1="692.5" y1="-164.5" x2="692.5" y2="770.5" gradientUnits="userSpaceOnUse">
<stop stop-color="white"/>
<stop offset="1" stop-color="white" stop-opacity="0"/>
</linearGradient>
<linearGradient id="paint17_linear_527_2621" x1="692.5" y1="-164.5" x2="692.5" y2="770.5" gradientUnits="userSpaceOnUse">
<stop stop-color="white"/>
<stop offset="1" stop-color="white" stop-opacity="0"/>
</linearGradient>
<linearGradient id="paint18_linear_527_2621" x1="692.5" y1="-164.5" x2="692.5" y2="770.5" gradientUnits="userSpaceOnUse">
<stop stop-color="white"/>
<stop offset="1" stop-color="white" stop-opacity="0"/>
</linearGradient>
<linearGradient id="paint19_linear_527_2621" x1="692.5" y1="-164.5" x2="692.5" y2="770.5" gradientUnits="userSpaceOnUse">
<stop stop-color="white"/>
<stop offset="1" stop-color="white" stop-opacity="0"/>
</linearGradient>
<linearGradient id="paint20_linear_527_2621" x1="692.5" y1="-164.5" x2="692.5" y2="770.5" gradientUnits="userSpaceOnUse">
<stop stop-color="white"/>
<stop offset="1" stop-color="white" stop-opacity="0"/>
</linearGradient>
<linearGradient id="paint21_linear_527_2621" x1="692.5" y1="-164.5" x2="692.5" y2="770.5" gradientUnits="userSpaceOnUse">
<stop stop-color="white"/>
<stop offset="1" stop-color="white" stop-opacity="0"/>
</linearGradient>
<linearGradient id="paint22_linear_527_2621" x1="692.5" y1="-164.5" x2="692.5" y2="770.5" gradientUnits="userSpaceOnUse">
<stop stop-color="white"/>
<stop offset="1" stop-color="white" stop-opacity="0"/>
</linearGradient>
<linearGradient id="paint23_linear_527_2621" x1="692.5" y1="-164.5" x2="692.5" y2="770.5" gradientUnits="userSpaceOnUse">
<stop stop-color="white"/>
<stop offset="1" stop-color="white" stop-opacity="0"/>
</linearGradient>
<linearGradient id="paint24_linear_527_2621" x1="692.5" y1="-164.5" x2="692.5" y2="770.5" gradientUnits="userSpaceOnUse">
<stop stop-color="white"/>
<stop offset="1" stop-color="white" stop-opacity="0"/>
</linearGradient>
<linearGradient id="paint25_linear_527_2621" x1="692.5" y1="-164.5" x2="692.5" y2="770.5" gradientUnits="userSpaceOnUse">
<stop stop-color="white"/>
<stop offset="1" stop-color="white" stop-opacity="0"/>
</linearGradient>
<linearGradient id="paint26_linear_527_2621" x1="692.5" y1="-164.5" x2="692.5" y2="770.5" gradientUnits="userSpaceOnUse">
<stop stop-color="white"/>
<stop offset="1" stop-color="white" stop-opacity="0"/>
</linearGradient>
<linearGradient id="paint27_linear_527_2621" x1="692.5" y1="-164.5" x2="692.5" y2="770.5" gradientUnits="userSpaceOnUse">
<stop stop-color="white"/>
<stop offset="1" stop-color="white" stop-opacity="0"/>
</linearGradient>
<linearGradient id="paint28_linear_527_2621" x1="692.5" y1="-164.5" x2="692.5" y2="770.5" gradientUnits="userSpaceOnUse">
<stop stop-color="white"/>
<stop offset="1" stop-color="white" stop-opacity="0"/>
</linearGradient>
<linearGradient id="paint29_linear_527_2621" x1="692.5" y1="-164.5" x2="692.5" y2="770.5" gradientUnits="userSpaceOnUse">
<stop stop-color="white"/>
<stop offset="1" stop-color="white" stop-opacity="0"/>
</linearGradient>
<linearGradient id="paint30_linear_527_2621" x1="692.5" y1="-164.5" x2="692.5" y2="770.5" gradientUnits="userSpaceOnUse">
<stop stop-color="white"/>
<stop offset="1" stop-color="white" stop-opacity="0"/>
</linearGradient>
<linearGradient id="paint31_linear_527_2621" x1="692.5" y1="-164.5" x2="692.5" y2="770.5" gradientUnits="userSpaceOnUse">
<stop stop-color="white"/>
<stop offset="1" stop-color="white" stop-opacity="0"/>
</linearGradient>
<linearGradient id="paint32_linear_527_2621" x1="692.5" y1="-164.5" x2="692.5" y2="770.5" gradientUnits="userSpaceOnUse">
<stop stop-color="white"/>
<stop offset="1" stop-color="white" stop-opacity="0"/>
</linearGradient>
<linearGradient id="paint33_linear_527_2621" x1="692.5" y1="-164.5" x2="692.5" y2="770.5" gradientUnits="userSpaceOnUse">
<stop stop-color="white"/>
<stop offset="1" stop-color="white" stop-opacity="0"/>
</linearGradient>
<linearGradient id="paint34_linear_527_2621" x1="692.5" y1="-164.5" x2="692.5" y2="770.5" gradientUnits="userSpaceOnUse">
<stop stop-color="white"/>
<stop offset="1" stop-color="white" stop-opacity="0"/>
</linearGradient>
<linearGradient id="paint35_linear_527_2621" x1="692.5" y1="-164.5" x2="692.5" y2="770.5" gradientUnits="userSpaceOnUse">
<stop stop-color="white"/>
<stop offset="1" stop-color="white" stop-opacity="0"/>
</linearGradient>
<linearGradient id="paint36_linear_527_2621" x1="692.5" y1="-164.5" x2="692.5" y2="770.5" gradientUnits="userSpaceOnUse">
<stop stop-color="white"/>
<stop offset="1" stop-color="white" stop-opacity="0"/>
</linearGradient>
<linearGradient id="paint37_linear_527_2621" x1="692.5" y1="-164.5" x2="692.5" y2="770.5" gradientUnits="userSpaceOnUse">
<stop stop-color="white"/>
<stop offset="1" stop-color="white" stop-opacity="0"/>
</linearGradient>
</defs>
</svg>
