<svg width="1440" height="770" viewBox="0 0 1440 770" fill="none" xmlns="http://www.w3.org/2000/svg">
<g opacity="0.8">
<g style="mix-blend-mode:overlay">
<path d="M-48 -43H-47V803H-48V-43Z" fill="url(#paint0_radial_610_2618)"/>
<path d="M11 -43H12V803H11V-43Z" fill="url(#paint1_radial_610_2618)"/>
<path d="M70 -43H71V803H70V-43Z" fill="url(#paint2_radial_610_2618)"/>
<path d="M129 -43H130V803H129V-43Z" fill="url(#paint3_radial_610_2618)"/>
<path d="M188 -43H189V803H188V-43Z" fill="url(#paint4_radial_610_2618)"/>
<path d="M247 -43H248V803H247V-43Z" fill="url(#paint5_radial_610_2618)"/>
<path d="M306 -43H307V803H306V-43Z" fill="url(#paint6_radial_610_2618)"/>
<path d="M365 -43H366V803H365V-43Z" fill="url(#paint7_radial_610_2618)"/>
<path d="M424 -43H425V803H424V-43Z" fill="url(#paint8_radial_610_2618)"/>
<path d="M483 -43H484V803H483V-43Z" fill="url(#paint9_radial_610_2618)"/>
<path d="M542 -43H543V803H542V-43Z" fill="url(#paint10_radial_610_2618)"/>
<path d="M601 -43H602V803H601V-43Z" fill="url(#paint11_radial_610_2618)"/>
<path d="M660 -43H661V803H660V-43Z" fill="url(#paint12_radial_610_2618)"/>
<path d="M719 -43H720V803H719V-43Z" fill="url(#paint13_radial_610_2618)"/>
<path d="M778 -43H779V803H778V-43Z" fill="url(#paint14_radial_610_2618)"/>
<path d="M837 -43H838V803H837V-43Z" fill="url(#paint15_radial_610_2618)"/>
<path d="M896 -43H897V803H896V-43Z" fill="url(#paint16_radial_610_2618)"/>
<path d="M955 -43H956V803H955V-43Z" fill="url(#paint17_radial_610_2618)"/>
<path d="M1014 -43H1015V803H1014V-43Z" fill="url(#paint18_radial_610_2618)"/>
<path d="M1073 -43H1074V803H1073V-43Z" fill="url(#paint19_radial_610_2618)"/>
<path d="M1132 -43H1133V803H1132V-43Z" fill="url(#paint20_radial_610_2618)"/>
<path d="M1191 -43H1192V803H1191V-43Z" fill="url(#paint21_radial_610_2618)"/>
<path d="M1250 -43H1251V803H1250V-43Z" fill="url(#paint22_radial_610_2618)"/>
<path d="M1309 -43H1310V803H1309V-43Z" fill="url(#paint23_radial_610_2618)"/>
<path d="M1368 -43H1369V803H1368V-43Z" fill="url(#paint24_radial_610_2618)"/>
<path d="M1427 -43H1428V803H1427V-43Z" fill="url(#paint25_radial_610_2618)"/>
<path d="M1486 -43H1487V803H1486V-43Z" fill="url(#paint26_radial_610_2618)"/>
</g>
<g style="mix-blend-mode:overlay">
<path d="M0 750L0 749L1440 749V750L0 750Z" fill="url(#paint27_radial_610_2618)"/>
<path d="M0 691L0 690L1440 690V691L0 691Z" fill="url(#paint28_radial_610_2618)"/>
<path d="M0 632L0 631L1440 631V632L0 632Z" fill="url(#paint29_radial_610_2618)"/>
<path d="M0 573L0 572L1440 572V573L0 573Z" fill="url(#paint30_radial_610_2618)"/>
<path d="M0 514L0 513L1440 513V514L0 514Z" fill="url(#paint31_radial_610_2618)"/>
<path d="M0 455L0 454L1440 454V455L0 455Z" fill="url(#paint32_radial_610_2618)"/>
<path d="M0 396L0 395L1440 395V396L0 396Z" fill="url(#paint33_radial_610_2618)"/>
<path d="M0 337L0 336L1440 336V337L0 337Z" fill="url(#paint34_radial_610_2618)"/>
<path d="M0 278L0 277L1440 277V278L0 278Z" fill="url(#paint35_radial_610_2618)"/>
<path d="M0 219L0 218L1440 218V219L0 219Z" fill="url(#paint36_radial_610_2618)"/>
<path d="M0 160L0 159L1440 159V160L0 160Z" fill="url(#paint37_radial_610_2618)"/>
<path d="M0 101L0 100L1440 100V101L0 101Z" fill="url(#paint38_radial_610_2618)"/>
<path d="M0 42L0 41L1440 41V42L0 42Z" fill="url(#paint39_radial_610_2618)"/>
</g>
</g>
<defs>
<radialGradient id="paint0_radial_610_2618" cx="0" cy="0" r="1" gradientUnits="userSpaceOnUse" gradientTransform="translate(719 338.5) rotate(90) scale(359 748.443)">
<stop stop-color="white" stop-opacity="0.75"/>
<stop offset="1" stop-color="#D9D9D9" stop-opacity="0.5"/>
</radialGradient>
<radialGradient id="paint1_radial_610_2618" cx="0" cy="0" r="1" gradientUnits="userSpaceOnUse" gradientTransform="translate(719 338.5) rotate(90) scale(359 748.443)">
<stop stop-color="white" stop-opacity="0.75"/>
<stop offset="1" stop-color="#D9D9D9" stop-opacity="0.5"/>
</radialGradient>
<radialGradient id="paint2_radial_610_2618" cx="0" cy="0" r="1" gradientUnits="userSpaceOnUse" gradientTransform="translate(719 338.5) rotate(90) scale(359 748.443)">
<stop stop-color="white" stop-opacity="0.75"/>
<stop offset="1" stop-color="#D9D9D9" stop-opacity="0.5"/>
</radialGradient>
<radialGradient id="paint3_radial_610_2618" cx="0" cy="0" r="1" gradientUnits="userSpaceOnUse" gradientTransform="translate(719 338.5) rotate(90) scale(359 748.443)">
<stop stop-color="white" stop-opacity="0.75"/>
<stop offset="1" stop-color="#D9D9D9" stop-opacity="0.5"/>
</radialGradient>
<radialGradient id="paint4_radial_610_2618" cx="0" cy="0" r="1" gradientUnits="userSpaceOnUse" gradientTransform="translate(719 338.5) rotate(90) scale(359 748.443)">
<stop stop-color="white" stop-opacity="0.75"/>
<stop offset="1" stop-color="#D9D9D9" stop-opacity="0.5"/>
</radialGradient>
<radialGradient id="paint5_radial_610_2618" cx="0" cy="0" r="1" gradientUnits="userSpaceOnUse" gradientTransform="translate(719 338.5) rotate(90) scale(359 748.443)">
<stop stop-color="white" stop-opacity="0.75"/>
<stop offset="1" stop-color="#D9D9D9" stop-opacity="0.5"/>
</radialGradient>
<radialGradient id="paint6_radial_610_2618" cx="0" cy="0" r="1" gradientUnits="userSpaceOnUse" gradientTransform="translate(719 338.5) rotate(90) scale(359 748.443)">
<stop stop-color="white" stop-opacity="0.75"/>
<stop offset="1" stop-color="#D9D9D9" stop-opacity="0.5"/>
</radialGradient>
<radialGradient id="paint7_radial_610_2618" cx="0" cy="0" r="1" gradientUnits="userSpaceOnUse" gradientTransform="translate(719 338.5) rotate(90) scale(359 748.443)">
<stop stop-color="white" stop-opacity="0.75"/>
<stop offset="1" stop-color="#D9D9D9" stop-opacity="0.5"/>
</radialGradient>
<radialGradient id="paint8_radial_610_2618" cx="0" cy="0" r="1" gradientUnits="userSpaceOnUse" gradientTransform="translate(719 338.5) rotate(90) scale(359 748.443)">
<stop stop-color="white" stop-opacity="0.75"/>
<stop offset="1" stop-color="#D9D9D9" stop-opacity="0.5"/>
</radialGradient>
<radialGradient id="paint9_radial_610_2618" cx="0" cy="0" r="1" gradientUnits="userSpaceOnUse" gradientTransform="translate(719 338.5) rotate(90) scale(359 748.443)">
<stop stop-color="white" stop-opacity="0.75"/>
<stop offset="1" stop-color="#D9D9D9" stop-opacity="0.5"/>
</radialGradient>
<radialGradient id="paint10_radial_610_2618" cx="0" cy="0" r="1" gradientUnits="userSpaceOnUse" gradientTransform="translate(719 338.5) rotate(90) scale(359 748.443)">
<stop stop-color="white" stop-opacity="0.75"/>
<stop offset="1" stop-color="#D9D9D9" stop-opacity="0.5"/>
</radialGradient>
<radialGradient id="paint11_radial_610_2618" cx="0" cy="0" r="1" gradientUnits="userSpaceOnUse" gradientTransform="translate(719 338.5) rotate(90) scale(359 748.443)">
<stop stop-color="white" stop-opacity="0.75"/>
<stop offset="1" stop-color="#D9D9D9" stop-opacity="0.5"/>
</radialGradient>
<radialGradient id="paint12_radial_610_2618" cx="0" cy="0" r="1" gradientUnits="userSpaceOnUse" gradientTransform="translate(719 338.5) rotate(90) scale(359 748.443)">
<stop stop-color="white" stop-opacity="0.75"/>
<stop offset="1" stop-color="#D9D9D9" stop-opacity="0.5"/>
</radialGradient>
<radialGradient id="paint13_radial_610_2618" cx="0" cy="0" r="1" gradientUnits="userSpaceOnUse" gradientTransform="translate(719 338.5) rotate(90) scale(359 748.443)">
<stop stop-color="white" stop-opacity="0.75"/>
<stop offset="1" stop-color="#D9D9D9" stop-opacity="0.5"/>
</radialGradient>
<radialGradient id="paint14_radial_610_2618" cx="0" cy="0" r="1" gradientUnits="userSpaceOnUse" gradientTransform="translate(719 338.5) rotate(90) scale(359 748.443)">
<stop stop-color="white" stop-opacity="0.75"/>
<stop offset="1" stop-color="#D9D9D9" stop-opacity="0.5"/>
</radialGradient>
<radialGradient id="paint15_radial_610_2618" cx="0" cy="0" r="1" gradientUnits="userSpaceOnUse" gradientTransform="translate(719 338.5) rotate(90) scale(359 748.443)">
<stop stop-color="white" stop-opacity="0.75"/>
<stop offset="1" stop-color="#D9D9D9" stop-opacity="0.5"/>
</radialGradient>
<radialGradient id="paint16_radial_610_2618" cx="0" cy="0" r="1" gradientUnits="userSpaceOnUse" gradientTransform="translate(719 338.5) rotate(90) scale(359 748.443)">
<stop stop-color="white" stop-opacity="0.75"/>
<stop offset="1" stop-color="#D9D9D9" stop-opacity="0.5"/>
</radialGradient>
<radialGradient id="paint17_radial_610_2618" cx="0" cy="0" r="1" gradientUnits="userSpaceOnUse" gradientTransform="translate(719 338.5) rotate(90) scale(359 748.443)">
<stop stop-color="white" stop-opacity="0.75"/>
<stop offset="1" stop-color="#D9D9D9" stop-opacity="0.5"/>
</radialGradient>
<radialGradient id="paint18_radial_610_2618" cx="0" cy="0" r="1" gradientUnits="userSpaceOnUse" gradientTransform="translate(719 338.5) rotate(90) scale(359 748.443)">
<stop stop-color="white" stop-opacity="0.75"/>
<stop offset="1" stop-color="#D9D9D9" stop-opacity="0.5"/>
</radialGradient>
<radialGradient id="paint19_radial_610_2618" cx="0" cy="0" r="1" gradientUnits="userSpaceOnUse" gradientTransform="translate(719 338.5) rotate(90) scale(359 748.443)">
<stop stop-color="white" stop-opacity="0.75"/>
<stop offset="1" stop-color="#D9D9D9" stop-opacity="0.5"/>
</radialGradient>
<radialGradient id="paint20_radial_610_2618" cx="0" cy="0" r="1" gradientUnits="userSpaceOnUse" gradientTransform="translate(719 338.5) rotate(90) scale(359 748.443)">
<stop stop-color="white" stop-opacity="0.75"/>
<stop offset="1" stop-color="#D9D9D9" stop-opacity="0.5"/>
</radialGradient>
<radialGradient id="paint21_radial_610_2618" cx="0" cy="0" r="1" gradientUnits="userSpaceOnUse" gradientTransform="translate(719 338.5) rotate(90) scale(359 748.443)">
<stop stop-color="white" stop-opacity="0.75"/>
<stop offset="1" stop-color="#D9D9D9" stop-opacity="0.5"/>
</radialGradient>
<radialGradient id="paint22_radial_610_2618" cx="0" cy="0" r="1" gradientUnits="userSpaceOnUse" gradientTransform="translate(719 338.5) rotate(90) scale(359 748.443)">
<stop stop-color="white" stop-opacity="0.75"/>
<stop offset="1" stop-color="#D9D9D9" stop-opacity="0.5"/>
</radialGradient>
<radialGradient id="paint23_radial_610_2618" cx="0" cy="0" r="1" gradientUnits="userSpaceOnUse" gradientTransform="translate(719 338.5) rotate(90) scale(359 748.443)">
<stop stop-color="white" stop-opacity="0.75"/>
<stop offset="1" stop-color="#D9D9D9" stop-opacity="0.5"/>
</radialGradient>
<radialGradient id="paint24_radial_610_2618" cx="0" cy="0" r="1" gradientUnits="userSpaceOnUse" gradientTransform="translate(719 338.5) rotate(90) scale(359 748.443)">
<stop stop-color="white" stop-opacity="0.75"/>
<stop offset="1" stop-color="#D9D9D9" stop-opacity="0.5"/>
</radialGradient>
<radialGradient id="paint25_radial_610_2618" cx="0" cy="0" r="1" gradientUnits="userSpaceOnUse" gradientTransform="translate(719 338.5) rotate(90) scale(359 748.443)">
<stop stop-color="white" stop-opacity="0.75"/>
<stop offset="1" stop-color="#D9D9D9" stop-opacity="0.5"/>
</radialGradient>
<radialGradient id="paint26_radial_610_2618" cx="0" cy="0" r="1" gradientUnits="userSpaceOnUse" gradientTransform="translate(719 338.5) rotate(90) scale(359 748.443)">
<stop stop-color="white" stop-opacity="0.75"/>
<stop offset="1" stop-color="#D9D9D9" stop-opacity="0.5"/>
</radialGradient>
<radialGradient id="paint27_radial_610_2618" cx="0" cy="0" r="1" gradientUnits="userSpaceOnUse" gradientTransform="translate(649.362 514) scale(611.064 748.443)">
<stop stop-color="white" stop-opacity="0.75"/>
<stop offset="1" stop-color="#D9D9D9" stop-opacity="0.5"/>
</radialGradient>
<radialGradient id="paint28_radial_610_2618" cx="0" cy="0" r="1" gradientUnits="userSpaceOnUse" gradientTransform="translate(649.362 514) scale(611.064 748.443)">
<stop stop-color="white" stop-opacity="0.75"/>
<stop offset="1" stop-color="#D9D9D9" stop-opacity="0.5"/>
</radialGradient>
<radialGradient id="paint29_radial_610_2618" cx="0" cy="0" r="1" gradientUnits="userSpaceOnUse" gradientTransform="translate(649.362 514) scale(611.064 748.443)">
<stop stop-color="white" stop-opacity="0.75"/>
<stop offset="1" stop-color="#D9D9D9" stop-opacity="0.5"/>
</radialGradient>
<radialGradient id="paint30_radial_610_2618" cx="0" cy="0" r="1" gradientUnits="userSpaceOnUse" gradientTransform="translate(649.362 514) scale(611.064 748.443)">
<stop stop-color="white" stop-opacity="0.75"/>
<stop offset="1" stop-color="#D9D9D9" stop-opacity="0.5"/>
</radialGradient>
<radialGradient id="paint31_radial_610_2618" cx="0" cy="0" r="1" gradientUnits="userSpaceOnUse" gradientTransform="translate(649.362 514) scale(611.064 748.443)">
<stop stop-color="white" stop-opacity="0.75"/>
<stop offset="1" stop-color="#D9D9D9" stop-opacity="0.5"/>
</radialGradient>
<radialGradient id="paint32_radial_610_2618" cx="0" cy="0" r="1" gradientUnits="userSpaceOnUse" gradientTransform="translate(649.362 514) scale(611.064 748.443)">
<stop stop-color="white" stop-opacity="0.75"/>
<stop offset="1" stop-color="#D9D9D9" stop-opacity="0.5"/>
</radialGradient>
<radialGradient id="paint33_radial_610_2618" cx="0" cy="0" r="1" gradientUnits="userSpaceOnUse" gradientTransform="translate(649.362 514) scale(611.064 748.443)">
<stop stop-color="white" stop-opacity="0.75"/>
<stop offset="1" stop-color="#D9D9D9" stop-opacity="0.5"/>
</radialGradient>
<radialGradient id="paint34_radial_610_2618" cx="0" cy="0" r="1" gradientUnits="userSpaceOnUse" gradientTransform="translate(649.362 514) scale(611.064 748.443)">
<stop stop-color="white" stop-opacity="0.75"/>
<stop offset="1" stop-color="#D9D9D9" stop-opacity="0.5"/>
</radialGradient>
<radialGradient id="paint35_radial_610_2618" cx="0" cy="0" r="1" gradientUnits="userSpaceOnUse" gradientTransform="translate(649.362 514) scale(611.064 748.443)">
<stop stop-color="white" stop-opacity="0.75"/>
<stop offset="1" stop-color="#D9D9D9" stop-opacity="0.5"/>
</radialGradient>
<radialGradient id="paint36_radial_610_2618" cx="0" cy="0" r="1" gradientUnits="userSpaceOnUse" gradientTransform="translate(649.362 514) scale(611.064 748.443)">
<stop stop-color="white" stop-opacity="0.75"/>
<stop offset="1" stop-color="#D9D9D9" stop-opacity="0.5"/>
</radialGradient>
<radialGradient id="paint37_radial_610_2618" cx="0" cy="0" r="1" gradientUnits="userSpaceOnUse" gradientTransform="translate(649.362 514) scale(611.064 748.443)">
<stop stop-color="white" stop-opacity="0.75"/>
<stop offset="1" stop-color="#D9D9D9" stop-opacity="0.5"/>
</radialGradient>
<radialGradient id="paint38_radial_610_2618" cx="0" cy="0" r="1" gradientUnits="userSpaceOnUse" gradientTransform="translate(649.362 514) scale(611.064 748.443)">
<stop stop-color="white" stop-opacity="0.75"/>
<stop offset="1" stop-color="#D9D9D9" stop-opacity="0.5"/>
</radialGradient>
<radialGradient id="paint39_radial_610_2618" cx="0" cy="0" r="1" gradientUnits="userSpaceOnUse" gradientTransform="translate(649.362 514) scale(611.064 748.443)">
<stop stop-color="white" stop-opacity="0.75"/>
<stop offset="1" stop-color="#D9D9D9" stop-opacity="0.5"/>
</radialGradient>
</defs>
</svg>
