<svg width="30" height="30" viewBox="0 0 30 30" fill="none" xmlns="http://www.w3.org/2000/svg">
<path d="M15 9.99833C13.8435 9.99837 12.7227 10.3994 11.8287 11.1331C10.9347 11.8668 10.3227 12.8878 10.0971 14.0222C9.87144 15.1565 10.0461 16.3339 10.5912 17.3539C11.1364 18.3739 12.0183 19.1734 13.0868 19.616C14.1553 20.0587 15.3442 20.1172 16.451 19.7815C17.5577 19.4459 18.5139 18.7369 19.1565 17.7753C19.7992 16.8138 20.0886 15.6591 19.9753 14.5081C19.8621 13.3571 19.3533 12.281 18.5357 11.4631C18.087 10.9987 17.5493 10.6296 16.9547 10.3779C16.36 10.1262 15.7207 9.99712 15.075 9.99833L14.9962 9.99958L15 9.99833ZM15 7.29878C16.7728 7.30478 18.4887 7.9249 19.8557 9.05359C21.2228 10.1823 22.1565 11.7498 22.498 13.4894C22.8394 15.229 22.5675 17.0332 21.7285 18.5949C20.8896 20.1565 19.5354 21.3793 17.8964 22.0549C16.2574 22.7306 14.4349 22.8175 12.7391 22.3007C11.0433 21.784 9.57897 20.6956 8.59527 19.2208C7.61158 17.746 7.16933 15.9758 7.34379 14.2116C7.51826 12.4475 8.29865 10.7982 9.55216 9.54466C10.2429 8.83265 11.0697 8.26681 11.9834 7.88077C12.8972 7.49474 13.8793 7.29639 14.8713 7.29753L15.0075 7.29878H15ZM6.99383 5.19038H6.99633C7.41271 5.19025 7.81625 5.3345 8.1382 5.59854C8.46015 5.86259 8.68058 6.2301 8.76193 6.63845C8.84329 7.0468 8.78053 7.47073 8.58436 7.838C8.38818 8.20527 8.07073 8.49315 7.68609 8.6526C7.30146 8.81205 6.87343 8.83319 6.47495 8.71243C6.07647 8.59167 5.73219 8.33647 5.50078 7.99032C5.26936 7.64418 5.16513 7.2285 5.20584 6.81412C5.24655 6.39973 5.42969 6.01229 5.72405 5.7178C6.03774 5.39785 6.47517 5.19913 6.95884 5.19913H6.99508L6.99383 5.19038ZM2.69455 14.9888L2.68455 16.4823C2.67789 17.3871 2.67789 18.0741 2.68455 18.5432C2.69122 19.0122 2.7108 19.6405 2.74329 20.4278C2.76829 21.159 2.84078 21.8526 2.95576 22.5312L2.94326 22.44C3.03074 22.9712 3.15572 23.4423 3.32195 23.8935L3.30445 23.8398C3.56086 24.4771 3.94219 25.0566 4.42598 25.5442C4.90978 26.0319 5.48626 26.4178 6.12148 26.6793L6.15522 26.6918C6.59435 26.852 7.0475 26.9709 7.50875 27.0467L7.55499 27.053C8.21182 27.1633 8.87526 27.2296 9.54091 27.2517L9.56715 27.253C10.3554 27.2855 10.9836 27.305 11.4518 27.3117C11.9201 27.3184 12.6071 27.3184 13.5127 27.3117C14.4184 27.305 14.9163 27.3017 15.0062 27.3017C15.0962 27.3017 15.5941 27.305 16.4997 27.3117C17.4054 27.3184 18.0924 27.3184 18.5607 27.3117C19.0289 27.305 19.6571 27.2855 20.4453 27.253C21.1765 27.228 21.8701 27.1555 22.5487 27.0405L22.4575 27.053C22.9887 26.9655 23.4598 26.8405 23.911 26.6743L23.8573 26.6918C24.4946 26.4354 25.0741 26.0541 25.5617 25.5703C26.0494 25.0865 26.4353 24.51 26.6968 23.8748L26.7093 23.841C26.858 23.4436 26.983 22.9724 27.0642 22.4875L27.0705 22.4413C27.173 21.8551 27.2455 21.1615 27.2692 20.4566L27.2705 20.4303C27.3029 19.6421 27.3225 19.0139 27.3292 18.5457C27.3359 18.0774 27.3359 17.3904 27.3292 16.4848L27.2992 15L27.3092 13.5065C27.3159 12.6017 27.3159 11.9147 27.3092 11.4456C27.3025 10.9765 27.283 10.3483 27.2505 9.56091C27.2255 8.82978 27.153 8.13614 27.038 7.45751L27.0505 7.54874C26.963 7.01758 26.838 6.54641 26.6718 6.09523L26.6893 6.14898C26.4329 5.5117 26.0516 4.93216 25.5678 4.4445C25.084 3.95684 24.5075 3.57092 23.8723 3.30945L23.8385 3.29695C23.4411 3.14823 22.9699 3.02324 22.485 2.94201L22.4388 2.93576C21.8526 2.83328 21.159 2.76079 20.4541 2.73704L20.4278 2.73579C19.6396 2.7033 19.0114 2.68372 18.5432 2.67705C18.0749 2.67039 17.3879 2.67039 16.4823 2.67705C15.5766 2.68372 15.0787 2.68705 14.9888 2.68705C14.8988 2.68705 14.4009 2.68372 13.4952 2.67705C12.5896 2.67039 11.9026 2.67039 11.4343 2.67705C10.9661 2.68372 10.3379 2.7033 9.54966 2.73579C8.81853 2.76079 8.1249 2.83328 7.44626 2.94826L7.53749 2.93576C7.04203 3.01538 6.55531 3.14219 6.08399 3.31445L6.13773 3.29695C5.50045 3.55336 4.92092 3.93469 4.43326 4.41849C3.9456 4.90228 3.55967 5.47876 3.2982 6.11398L3.2857 6.14773C3.12546 6.58685 3.00663 7.04 2.93076 7.50125L2.92451 7.54749C2.81431 8.20391 2.74792 8.86693 2.7258 9.53216L2.72455 9.55841C2.69205 10.3466 2.67247 10.9748 2.66581 11.4431C2.65914 11.9113 2.65914 12.5983 2.66581 13.504L2.69455 14.9888ZM15 0C17.9812 0 20.0446 0.0333271 21.1902 0.0999832C22.3512 0.0409069 23.5117 0.226431 24.5965 0.644533C25.6812 1.06264 26.666 1.70399 27.4871 2.52702C28.3081 3.35006 28.9471 4.33642 29.3625 5.42219C29.778 6.50795 29.9607 7.66889 29.8988 8.82978L29.9 8.80978C29.9667 9.95542 30 12.0188 30 15C30 17.9812 29.9667 20.0446 29.9 21.1902C29.9591 22.3513 29.7736 23.5117 29.3555 24.5965C28.9374 25.6812 28.296 26.666 27.473 27.4871C26.6499 28.3081 25.6636 28.9471 24.5778 29.3625C23.4921 29.778 22.3311 29.9607 21.1702 29.8988L21.1902 29.9C20.0446 29.9667 17.9812 30 15 30C12.0188 30 9.95542 29.9667 8.80978 29.9C7.64875 29.9591 6.48825 29.7736 5.40351 29.3555C4.31876 28.9374 3.33396 28.296 2.51292 27.473C1.69189 26.6499 1.05294 25.6636 0.637482 24.5778C0.222024 23.492 0.0393283 22.3311 0.101233 21.1702L0.0999833 21.1902C0.0333278 20.0446 0 17.9812 0 15C0 12.0188 0.0333278 9.95542 0.0999833 8.80978C0.0409075 7.64875 0.226432 6.48826 0.644534 5.40351C1.06264 4.31876 1.70399 3.33396 2.52702 2.51292C3.35006 1.69189 4.33642 1.05294 5.42219 0.637482C6.50795 0.222025 7.66889 0.0393276 8.82978 0.101233L8.80978 0.0999832C9.95459 0.0333271 12.018 0 15 0Z" fill="url(#paint0_linear_527_2639)"/>
<defs>
<linearGradient id="paint0_linear_527_2639" x1="-9.42275e-07" y1="24.5175" x2="17.0004" y2="-7.50483" gradientUnits="userSpaceOnUse">
<stop stop-color="#007BFF"/>
<stop offset="1" stop-color="#1447FF"/>
</linearGradient>
</defs>
</svg>
