<svg width="30" height="30" viewBox="0 0 30 30" fill="none" xmlns="http://www.w3.org/2000/svg">
<path fill-rule="evenodd" clip-rule="evenodd" d="M25 0C26.3261 0 27.5979 0.526784 28.5355 1.46447C29.4732 2.40215 30 3.67392 30 5L30 25C30 26.3261 29.4732 27.5979 28.5355 28.5355C27.5979 29.4732 26.3261 30 25 30L5 30C3.67392 30 2.40215 29.4732 1.46447 28.5355C0.526784 27.5979 0 26.3261 0 25L0 5C0 3.67392 0.526784 2.40215 1.46447 1.46447C2.40215 0.526784 3.67392 0 5 0L25 0ZM8.33333 11.6667C7.89131 11.6667 7.46738 11.8423 7.15482 12.1548C6.84226 12.4674 6.66667 12.8913 6.66667 13.3333L6.66667 21.6667C6.66667 22.1087 6.84226 22.5326 7.15482 22.8452C7.46738 23.1577 7.89131 23.3333 8.33333 23.3333C8.77536 23.3333 9.19928 23.1577 9.51184 22.8452C9.8244 22.5326 10 22.1087 10 21.6667L10 13.3333C10 12.8913 9.8244 12.4674 9.51184 12.1548C9.19928 11.8423 8.77536 11.6667 8.33333 11.6667ZM13.3333 10C12.8913 10 12.4674 10.1756 12.1548 10.4882C11.8423 10.8007 11.6667 11.2246 11.6667 11.6667L11.6667 21.6667C11.6667 22.1087 11.8423 22.5326 12.1548 22.8452C12.4674 23.1577 12.8913 23.3333 13.3333 23.3333C13.7754 23.3333 14.1993 23.1577 14.5118 22.8452C14.8244 22.5326 15 22.1087 15 21.6667L15 15.5667C15.5083 14.9933 16.3667 14.32 17.3217 13.9117C17.8767 13.675 18.7117 13.5783 19.2917 13.7617C19.4841 13.8105 19.6554 13.9204 19.78 14.075C19.8667 14.1917 20 14.4517 20 15V21.6667C20 22.1087 20.1756 22.5326 20.4882 22.8452C20.8007 23.1577 21.2246 23.3333 21.6667 23.3333C22.1087 23.3333 22.5326 23.1577 22.8452 22.8452C23.1577 22.5326 23.3333 22.1087 23.3333 21.6667V15C23.3333 13.8833 23.05 12.89 22.46 12.0933C21.9171 11.3709 21.1573 10.8412 20.2917 10.5817C18.7883 10.11 17.1233 10.3717 16.0117 10.8483C15.6558 11.0014 15.3091 11.175 14.9733 11.3683C14.9035 10.9843 14.701 10.637 14.4013 10.3869C14.1016 10.1369 13.7237 9.99994 13.3333 10ZM8.33333 6.66667C7.89131 6.66667 7.46738 6.84226 7.15482 7.15482C6.84226 7.46738 6.66667 7.89131 6.66667 8.33333C6.66667 8.77536 6.84226 9.19928 7.15482 9.51184C7.46738 9.8244 7.89131 10 8.33333 10C8.77536 10 9.19928 9.8244 9.51184 9.51184C9.8244 9.19928 10 8.77536 10 8.33333C10 7.89131 9.8244 7.46738 9.51184 7.15482C9.19928 6.84226 8.77536 6.66667 8.33333 6.66667Z" fill="url(#paint0_linear_527_2641)"/>
<defs>
<linearGradient id="paint0_linear_527_2641" x1="5.48246" y1="-9.42275e-07" x2="37.5048" y2="17.0004" gradientUnits="userSpaceOnUse">
<stop stop-color="#007BFF"/>
<stop offset="1" stop-color="#1447FF"/>
</linearGradient>
</defs>
</svg>
