<svg width="411" height="131" viewBox="0 0 411 131" fill="none" xmlns="http://www.w3.org/2000/svg">
<path d="M272.655 0L308.467 130.884H282.359L277.175 110.986H240.142L235.142 130.884H209.034L244.379 0H272.655ZM247.178 85.7874H270.323L258.658 43.9128L247.178 85.7874Z" fill="url(#paint0_linear_527_2623)"/>
<path d="M410.5 105.36V130.812H401.982C384.947 130.812 368.838 124.327 357.913 112.839L341.063 95.6076V130.884H315.881V0H363.098C389.206 0 410.5 21.3079 410.5 47.4332C410.5 69.4823 394.946 88.5667 374.022 93.3842L375.874 95.4223C382.17 101.907 391.983 105.613 402.352 105.613L410.5 105.36ZM341.063 25.1989V69.4823H363.098C375.319 69.4823 385.317 59.6621 385.317 47.4332C385.317 35.2044 375.319 25.1989 363.098 25.1989H341.063Z" fill="url(#paint1_linear_527_2623)"/>
<path d="M204.137 45.577L175.914 92.5294L202.087 131H176.387L162.512 110.402L149.425 131H124.197L149.582 91.0148L123.566 45.577H148.006L163.3 72.2338L179.225 45.577H204.137Z" fill="white"/>
<path d="M62.4274 130.812V25.5304H212.972L222 0H3V25.5304H37.4826V130.812H62.4274Z" fill="white"/>
<path d="M85.7075 130.812H107.258V76.6523L85.7075 88.1945L85.7075 130.812Z" fill="white"/>
<path d="M85.7075 58.0071V77.5401L107.258 65.9979V45.873L85.7075 58.0071Z" fill="white"/>
<defs>
<linearGradient id="paint0_linear_527_2623" x1="245.852" y1="-4.11096e-06" x2="411.134" y2="135.067" gradientUnits="userSpaceOnUse">
<stop stop-color="#007BFF"/>
<stop offset="1" stop-color="#1447FF"/>
</linearGradient>
<linearGradient id="paint1_linear_527_2623" x1="245.852" y1="-4.11096e-06" x2="411.134" y2="135.067" gradientUnits="userSpaceOnUse">
<stop stop-color="#007BFF"/>
<stop offset="1" stop-color="#1447FF"/>
</linearGradient>
</defs>
</svg>
