<svg width="296" height="239" viewBox="0 0 296 239" fill="none" xmlns="http://www.w3.org/2000/svg">
<g>
<path d="M128.5 223.741H90.9731L84.4912 180.154H41.1645L34.6825 223.741L1.06592 230C15.7927 140.584 24.0495 90.4521 38.7763 1.03638L89.6087 1.03638L128.5 223.741ZM62.6572 37.6236L45.9408 149.93H79.7152L62.6572 37.6236ZM187.534 223.742H150.007V1.03662L205.615 1.03662C244.166 1.03662 261.223 17.5804 261.223 52.2587V65.9391C261.223 89.1641 253.036 103.799 236.66 109.844V110.48C253.377 115.252 261.564 131.16 261.564 157.566V196.699C261.564 208.788 262.929 217.697 265.658 223.742H227.449C225.061 217.379 224.037 208.152 224.037 196.381V155.657C224.037 135.296 217.897 128.296 200.498 128.296H187.534V223.742ZM187.534 32.8516V96.4815H201.18C216.191 96.4815 223.696 89.8003 223.696 72.9384V55.7584C223.696 40.4872 217.214 32.8516 204.591 32.8516H187.534ZM136.115 223.741H98.5883L92.1064 180.155H48.7797L42.2978 223.741H7.5L46.3916 1.03642L97.2237 1.03642L136.115 223.741ZM70.2723 37.6236L53.5558 149.93H87.3302L70.2723 37.6236ZM195.876 230H158.349V7.29478L213.957 7.29478C252.507 7.29478 269.565 23.8386 269.565 58.5169V72.1973C269.565 95.4222 261.377 110.057 245.002 116.102V116.738C261.718 121.51 269.906 137.418 269.906 163.824V202.957C269.906 215.047 271.271 223.955 274 230H235.791C233.403 223.637 232.379 214.41 232.379 202.639V161.915C232.379 141.554 226.238 134.555 208.839 134.555H195.876V230ZM195.876 39.1097V102.74H209.522C224.532 102.74 232.038 96.0585 232.038 79.1966V62.0165C232.038 46.7453 225.556 39.1097 212.933 39.1097H195.876Z" stroke="white"/>
</g>
<defs>
<filter id="filter0_d_721_4603" x="0.456543" y="0.536377" width="295.318" height="238.085" filterUnits="userSpaceOnUse" color-interpolation-filters="sRGB">
<feFlood flood-opacity="0" result="BackgroundImageFix"/>
<feColorMatrix in="SourceAlpha" type="matrix" values="0 0 0 0 0 0 0 0 0 0 0 0 0 0 0 0 0 0 127 0" result="hardAlpha"/>
<feOffset dx="17" dy="4"/>
<feGaussianBlur stdDeviation="2"/>
<feColorMatrix type="matrix" values="0 0 0 0 0 0 0 0 0 0 0 0 0 0 0 0 0 0 0.45 0"/>
<feBlend mode="normal" in2="BackgroundImageFix" result="effect1_dropShadow_721_4603"/>
<feBlend mode="normal" in="SourceGraphic" in2="effect1_dropShadow_721_4603" result="shape"/>
</filter>
</defs>
</svg>
